<svg width="40" height="40" viewBox="0 0 40 40" fill="none" xmlns="http://www.w3.org/2000/svg">
<path d="M15.9375 17.2656H34.6875C34.8594 17.2656 35 17.125 35 16.9531V14.7656C35 14.5937 34.8594 14.4531 34.6875 14.4531H15.9375C15.7656 14.4531 15.625 14.5937 15.625 14.7656V16.9531C15.625 17.125 15.7656 17.2656 15.9375 17.2656ZM15.625 25.2344C15.625 25.4063 15.7656 25.5469 15.9375 25.5469H34.6875C34.8594 25.5469 35 25.4063 35 25.2344V23.0469C35 22.875 34.8594 22.7344 34.6875 22.7344H15.9375C15.7656 22.7344 15.625 22.875 15.625 23.0469V25.2344ZM35.3125 6.25H4.6875C4.51562 6.25 4.375 6.39062 4.375 6.5625V8.75C4.375 8.92188 4.51562 9.0625 4.6875 9.0625H35.3125C35.4844 9.0625 35.625 8.92188 35.625 8.75V6.5625C35.625 6.39062 35.4844 6.25 35.3125 6.25ZM35.3125 30.9375H4.6875C4.51562 30.9375 4.375 31.0781 4.375 31.25V33.4375C4.375 33.6094 4.51562 33.75 4.6875 33.75H35.3125C35.4844 33.75 35.625 33.6094 35.625 33.4375V31.25C35.625 31.0781 35.4844 30.9375 35.3125 30.9375ZM5.5625 25.082L11.668 20.2734C11.7091 20.2411 11.7423 20.1999 11.7652 20.1529C11.788 20.1058 11.7999 20.0542 11.7999 20.002C11.7999 19.9497 11.788 19.8981 11.7652 19.851C11.7423 19.804 11.7091 19.7628 11.668 19.7305L5.5625 14.918C5.33594 14.7383 5 14.8984 5 15.1875V24.8086C4.99998 24.8738 5.01832 24.9378 5.05292 24.9931C5.08752 25.0484 5.13699 25.0929 5.19566 25.1214C5.25434 25.1499 5.31986 25.1613 5.38473 25.1544C5.4496 25.1474 5.51121 25.1223 5.5625 25.082V25.082Z" fill="black"/>
</svg>
